<svg xmlns="http://www.w3.org/2000/svg" xmlns:xlink="http://www.w3.org/1999/xlink" viewBox="0 0 750 500"><defs><style>.cls-1{fill:none;}.cls-2{isolation:isolate;}.cls-3{clip-path:url(#clip-path);}.cls-4{fill:url(#linear-gradient);}.cls-5,.cls-7{fill:#C30707;mix-blend-mode:multiply;}.cls-5{opacity:0.2;}.cls-6{fill:url(#linear-gradient-2);}.cls-7{opacity:0.1;}.cls-8{fill:url(#linear-gradient-3);}.cls-9{fill:#E90C0C;}.cls-10{fill:url(#linear-gradient-4);}.cls-11{fill:url(#linear-gradient-5);}.cls-12{fill:url(#linear-gradient-6);}.cls-13{fill:url(#linear-gradient-7);}.cls-14{fill:url(#linear-gradient-8);}.cls-15{fill:url(#linear-gradient-9);}.cls-16{fill:url(#linear-gradient-10);}.cls-17{fill:url(#linear-gradient-11);}.cls-18{fill:url(#linear-gradient-12);}.cls-19{fill:url(#linear-gradient-13);}.cls-20{fill:url(#linear-gradient-14);}.cls-21{fill:url(#linear-gradient-15);}.cls-22{fill:url(#linear-gradient-16);}.cls-23{fill:url(#linear-gradient-17);}.cls-24{fill:url(#linear-gradient-18);}.cls-25{fill:url(#linear-gradient-19);}.cls-26{fill:url(#linear-gradient-20);}.cls-27{fill:url(#linear-gradient-21);}.cls-28{fill:url(#linear-gradient-22);}.cls-29{fill:url(#linear-gradient-23);}.cls-30{fill:url(#linear-gradient-24);}.cls-31{fill:url(#linear-gradient-25);}.cls-32{fill:url(#linear-gradient-26);}.cls-33{fill:url(#linear-gradient-27);}.cls-34{fill:url(#linear-gradient-28);}.cls-35{fill:url(#linear-gradient-29);}.cls-36{fill:url(#linear-gradient-30);}.cls-37{fill:url(#linear-gradient-31);}.cls-38{fill:url(#linear-gradient-32);}.cls-39{fill:url(#linear-gradient-33);}.cls-40{fill:url(#linear-gradient-34);}.cls-41{fill:url(#linear-gradient-35);}.cls-42{fill:url(#linear-gradient-36);}.cls-43{fill:url(#linear-gradient-37);}.cls-44{fill:url(#linear-gradient-38);}.cls-45{fill:url(#linear-gradient-39);}.cls-46{fill:url(#linear-gradient-40);}.cls-47{fill:url(#linear-gradient-41);}.cls-48{fill:url(#linear-gradient-42);}.cls-49{fill:url(#linear-gradient-43);}.cls-50{fill:url(#linear-gradient-44);}.cls-51{fill:url(#linear-gradient-45);}.cls-52{fill:url(#linear-gradient-46);}.cls-53{fill:url(#linear-gradient-47);}.cls-54{fill:url(#linear-gradient-48);}.cls-55{fill:url(#linear-gradient-49);}.cls-56{fill:url(#linear-gradient-50);}.cls-57{fill:url(#linear-gradient-51);}.cls-58{fill:url(#linear-gradient-52);}.cls-59{fill:url(#linear-gradient-53);}.cls-60{fill:url(#linear-gradient-54);}.cls-61{fill:url(#linear-gradient-55);}.cls-62{fill:url(#linear-gradient-56);}.cls-63{fill:url(#linear-gradient-57);}.cls-64{fill:url(#linear-gradient-58);}.cls-65{fill:url(#linear-gradient-59);}.cls-66{fill:url(#linear-gradient-60);}.cls-67{fill:url(#linear-gradient-61);}.cls-68{fill:url(#linear-gradient-62);}.cls-69{fill:url(#linear-gradient-63);}.cls-70{fill:url(#linear-gradient-64);}.cls-71{fill:url(#linear-gradient-65);}.cls-72{fill:url(#linear-gradient-66);}.cls-73{fill:url(#linear-gradient-67);}.cls-74{fill:url(#linear-gradient-68);}.cls-75{fill:url(#linear-gradient-69);}.cls-76{fill:url(#linear-gradient-70);}.cls-77{fill:url(#linear-gradient-71);}.cls-78{fill:url(#linear-gradient-72);}.cls-79{fill:url(#linear-gradient-73);}.cls-80{fill:url(#linear-gradient-74);}.cls-81{fill:url(#linear-gradient-75);}.cls-82{fill:url(#linear-gradient-76);}.cls-83{fill:url(#linear-gradient-77);}.cls-84{fill:url(#linear-gradient-78);}.cls-85{fill:url(#linear-gradient-79);}.cls-86{fill:url(#linear-gradient-80);}.cls-87{fill:url(#linear-gradient-81);}.cls-88{fill:url(#linear-gradient-82);}.cls-89{fill:url(#linear-gradient-83);}.cls-90{mix-blend-mode:overlay;}.cls-91{fill:#cc313d;}.cls-92{fill:url(#linear-gradient-84);}.cls-93{fill:url(#linear-gradient-85);}.cls-94{fill:url(#linear-gradient-86);}.cls-95{fill:url(#linear-gradient-87);}.cls-96{fill:url(#linear-gradient-88);}.cls-97{fill:url(#linear-gradient-89);}.cls-98{fill:url(#linear-gradient-90);}.cls-99{fill:url(#linear-gradient-91);}.cls-100{fill:url(#linear-gradient-92);}.cls-101{fill:url(#linear-gradient-93);}.cls-102{fill:url(#linear-gradient-94);}.cls-103{fill:url(#linear-gradient-95);}.cls-104{fill:url(#linear-gradient-96);}.cls-105{fill:url(#linear-gradient-97);}.cls-106{fill:url(#linear-gradient-98);}.cls-107{fill:url(#linear-gradient-99);}.cls-108{fill:url(#linear-gradient-100);}</style><clipPath id="clip-path"><rect class="cls-1" width="750" height="500"/></clipPath><linearGradient id="linear-gradient" x1="126.27" y1="-54.49" x2="632.01" y2="564.63" gradientUnits="userSpaceOnUse"><stop offset="0" stop-color="#E90C0C"/><stop offset="1" stop-color="#FFA6AC"/></linearGradient><linearGradient id="linear-gradient-2" x1="364.75" y1="-162.02" x2="947.1" y2="707.12" xlink:href="#linear-gradient"/><linearGradient id="linear-gradient-3" x1="200.79" y1="-2.45" x2="573.45" y2="511.64" gradientUnits="userSpaceOnUse"><stop offset="0" stop-color="#B62B49"/><stop offset="0.13" stop-color="#F9DBBD"/><stop offset="0.39" stop-color="#ed5238"/><stop offset="0.74" stop-color="#D00E0E"/><stop offset="1" stop-color="#FFA6AC"/></linearGradient><linearGradient id="linear-gradient-4" x1="221.56" y1="248.59" x2="-59.08" y2="497.16" gradientUnits="userSpaceOnUse"><stop offset="0" stop-color="#cc313d"/><stop offset="1" stop-color="#910624"/></linearGradient><linearGradient id="linear-gradient-5" x1="183.85" y1="324.62" x2="-60.18" y2="646.35" xlink:href="#linear-gradient-4"/><linearGradient id="linear-gradient-6" x1="195.96" y1="469.88" x2="91.2" y2="684.3" xlink:href="#linear-gradient-4"/><linearGradient id="linear-gradient-7" x1="581.56" y1="250.68" x2="913.42" y2="39.85" xlink:href="#linear-gradient-4"/><linearGradient id="linear-gradient-8" x1="683.89" y1="196.09" x2="906.43" y2="81.57" xlink:href="#linear-gradient-4"/><linearGradient id="linear-gradient-9" x1="686.89" y1="65.48" x2="794.36" y2="-32.53" xlink:href="#linear-gradient-4"/><linearGradient id="linear-gradient-10" x1="740.09" y1="90.48" x2="929.4" y2="-133.12" gradientUnits="userSpaceOnUse"><stop offset="0" stop-color="#450920"/><stop offset="0" stop-color="#450920"/><stop offset="1" stop-color="#E90C0C"/></linearGradient><linearGradient id="linear-gradient-11" x1="783.56" y1="66.01" x2="962.27" y2="-147.4" gradientUnits="userSpaceOnUse"><stop offset="0" stop-color="#C80A0A"/><stop offset="0" stop-color="#C80A0A"/><stop offset="1" stop-color="#910624"/></linearGradient><linearGradient id="linear-gradient-12" x1="115.27" y1="351.12" x2="-87.9" y2="216.75" gradientUnits="userSpaceOnUse"><stop offset="0.01" stop-color="#fff7a3"/><stop offset="1" stop-color="#ff9213"/></linearGradient><linearGradient id="linear-gradient-13" x1="114.38" y1="352.46" x2="-88.79" y2="218.09" xlink:href="#linear-gradient-12"/><linearGradient id="linear-gradient-14" x1="113.5" y1="353.8" x2="-89.68" y2="219.43" xlink:href="#linear-gradient-12"/><linearGradient id="linear-gradient-15" x1="112.61" y1="355.14" x2="-90.57" y2="220.78" xlink:href="#linear-gradient-12"/><linearGradient id="linear-gradient-16" x1="111.72" y1="356.49" x2="-91.45" y2="222.12" xlink:href="#linear-gradient-12"/><linearGradient id="linear-gradient-17" x1="110.83" y1="357.83" x2="-92.34" y2="223.46" xlink:href="#linear-gradient-12"/><linearGradient id="linear-gradient-18" x1="109.94" y1="359.17" x2="-93.23" y2="224.8" xlink:href="#linear-gradient-12"/><linearGradient id="linear-gradient-19" x1="109.06" y1="360.51" x2="-94.12" y2="226.14" xlink:href="#linear-gradient-12"/><linearGradient id="linear-gradient-20" x1="108.17" y1="361.86" x2="-95.01" y2="227.49" xlink:href="#linear-gradient-12"/><linearGradient id="linear-gradient-21" x1="107.28" y1="363.2" x2="-95.89" y2="228.83" xlink:href="#linear-gradient-12"/><linearGradient id="linear-gradient-22" x1="106.39" y1="364.54" x2="-96.78" y2="230.17" xlink:href="#linear-gradient-12"/><linearGradient id="linear-gradient-23" x1="105.51" y1="365.88" x2="-97.67" y2="231.51" xlink:href="#linear-gradient-12"/><linearGradient id="linear-gradient-24" x1="104.62" y1="367.23" x2="-98.56" y2="232.86" xlink:href="#linear-gradient-12"/><linearGradient id="linear-gradient-25" x1="103.73" y1="368.57" x2="-99.44" y2="234.2" xlink:href="#linear-gradient-12"/><linearGradient id="linear-gradient-26" x1="102.84" y1="369.91" x2="-100.33" y2="235.54" xlink:href="#linear-gradient-12"/><linearGradient id="linear-gradient-27" x1="101.95" y1="371.25" x2="-101.22" y2="236.88" xlink:href="#linear-gradient-12"/><linearGradient id="linear-gradient-28" x1="101.07" y1="372.6" x2="-102.11" y2="238.23" xlink:href="#linear-gradient-12"/><linearGradient id="linear-gradient-29" x1="100.18" y1="373.94" x2="-103" y2="239.57" xlink:href="#linear-gradient-12"/><linearGradient id="linear-gradient-30" x1="99.29" y1="375.28" x2="-103.88" y2="240.91" xlink:href="#linear-gradient-12"/><linearGradient id="linear-gradient-31" x1="98.4" y1="376.62" x2="-104.77" y2="242.25" xlink:href="#linear-gradient-12"/><linearGradient id="linear-gradient-32" x1="97.51" y1="377.97" x2="-105.66" y2="243.6" xlink:href="#linear-gradient-12"/><linearGradient id="linear-gradient-33" x1="96.63" y1="379.31" x2="-106.55" y2="244.94" xlink:href="#linear-gradient-12"/><linearGradient id="linear-gradient-34" x1="95.74" y1="380.65" x2="-107.44" y2="246.28" xlink:href="#linear-gradient-12"/><linearGradient id="linear-gradient-35" x1="94.85" y1="381.99" x2="-108.32" y2="247.62" xlink:href="#linear-gradient-12"/><linearGradient id="linear-gradient-36" x1="93.96" y1="383.34" x2="-109.21" y2="248.97" xlink:href="#linear-gradient-12"/><linearGradient id="linear-gradient-37" x1="516.88" y1="476.41" x2="592.51" y2="662.49" xlink:href="#linear-gradient-12"/><linearGradient id="linear-gradient-38" x1="519.21" y1="475.47" x2="594.83" y2="661.55" xlink:href="#linear-gradient-12"/><linearGradient id="linear-gradient-39" x1="521.53" y1="474.52" x2="597.16" y2="660.61" xlink:href="#linear-gradient-12"/><linearGradient id="linear-gradient-40" x1="523.86" y1="473.58" x2="599.48" y2="659.66" xlink:href="#linear-gradient-12"/><linearGradient id="linear-gradient-41" x1="526.18" y1="472.63" x2="601.8" y2="658.72" xlink:href="#linear-gradient-12"/><linearGradient id="linear-gradient-42" x1="528.51" y1="471.69" x2="604.13" y2="657.77" xlink:href="#linear-gradient-12"/><linearGradient id="linear-gradient-43" x1="530.83" y1="470.74" x2="606.46" y2="656.83" xlink:href="#linear-gradient-12"/><linearGradient id="linear-gradient-44" x1="533.16" y1="469.8" x2="608.78" y2="655.88" xlink:href="#linear-gradient-12"/><linearGradient id="linear-gradient-45" x1="535.48" y1="468.85" x2="611.1" y2="654.94" xlink:href="#linear-gradient-12"/><linearGradient id="linear-gradient-46" x1="537.81" y1="467.91" x2="613.43" y2="653.99" xlink:href="#linear-gradient-12"/><linearGradient id="linear-gradient-47" x1="540.13" y1="466.96" x2="615.75" y2="653.05" xlink:href="#linear-gradient-12"/><linearGradient id="linear-gradient-48" x1="542.46" y1="466.02" x2="618.08" y2="652.1" xlink:href="#linear-gradient-12"/><linearGradient id="linear-gradient-49" x1="544.78" y1="465.08" x2="620.4" y2="651.16" xlink:href="#linear-gradient-12"/><linearGradient id="linear-gradient-50" x1="547.11" y1="464.13" x2="622.73" y2="650.21" xlink:href="#linear-gradient-12"/><linearGradient id="linear-gradient-51" x1="549.43" y1="463.19" x2="625.05" y2="649.27" xlink:href="#linear-gradient-12"/><linearGradient id="linear-gradient-52" x1="551.76" y1="462.24" x2="627.38" y2="648.32" xlink:href="#linear-gradient-12"/><linearGradient id="linear-gradient-53" x1="554.08" y1="461.3" x2="629.7" y2="647.38" xlink:href="#linear-gradient-12"/><linearGradient id="linear-gradient-54" x1="556.41" y1="460.35" x2="632.03" y2="646.43" xlink:href="#linear-gradient-12"/><linearGradient id="linear-gradient-55" x1="558.73" y1="459.41" x2="634.35" y2="645.49" xlink:href="#linear-gradient-12"/><linearGradient id="linear-gradient-56" x1="164.46" y1="4.5" x2="312.68" y2="51.66" xlink:href="#linear-gradient-12"/><linearGradient id="linear-gradient-57" x1="163.71" y1="6.85" x2="311.93" y2="54.01" xlink:href="#linear-gradient-12"/><linearGradient id="linear-gradient-58" x1="162.96" y1="9.2" x2="311.18" y2="56.37" xlink:href="#linear-gradient-12"/><linearGradient id="linear-gradient-59" x1="162.21" y1="11.56" x2="310.43" y2="58.72" xlink:href="#linear-gradient-12"/><linearGradient id="linear-gradient-60" x1="161.46" y1="13.91" x2="309.69" y2="61.07" xlink:href="#linear-gradient-12"/><linearGradient id="linear-gradient-61" x1="160.72" y1="16.26" x2="308.94" y2="63.43" xlink:href="#linear-gradient-12"/><linearGradient id="linear-gradient-62" x1="159.97" y1="18.62" x2="308.19" y2="65.78" xlink:href="#linear-gradient-12"/><linearGradient id="linear-gradient-63" x1="159.22" y1="20.97" x2="307.44" y2="68.13" xlink:href="#linear-gradient-12"/><linearGradient id="linear-gradient-64" x1="158.47" y1="23.32" x2="306.69" y2="70.48" xlink:href="#linear-gradient-12"/><linearGradient id="linear-gradient-65" x1="157.72" y1="25.68" x2="305.94" y2="72.84" xlink:href="#linear-gradient-12"/><linearGradient id="linear-gradient-66" x1="156.97" y1="28.03" x2="305.19" y2="75.19" xlink:href="#linear-gradient-12"/><linearGradient id="linear-gradient-67" x1="156.22" y1="30.38" x2="304.45" y2="77.54" xlink:href="#linear-gradient-12"/><linearGradient id="linear-gradient-68" x1="155.47" y1="32.73" x2="303.7" y2="79.9" xlink:href="#linear-gradient-12"/><linearGradient id="linear-gradient-69" x1="154.73" y1="35.09" x2="302.95" y2="82.25" xlink:href="#linear-gradient-12"/><linearGradient id="linear-gradient-70" x1="153.98" y1="37.44" x2="302.2" y2="84.6" xlink:href="#linear-gradient-12"/><linearGradient id="linear-gradient-71" x1="153.23" y1="39.79" x2="301.45" y2="86.95" xlink:href="#linear-gradient-12"/><linearGradient id="linear-gradient-72" x1="152.48" y1="42.15" x2="300.7" y2="89.31" xlink:href="#linear-gradient-12"/><linearGradient id="linear-gradient-73" x1="151.73" y1="44.5" x2="299.95" y2="91.66" xlink:href="#linear-gradient-12"/><linearGradient id="linear-gradient-74" x1="150.98" y1="46.85" x2="299.2" y2="94.01" xlink:href="#linear-gradient-12"/><linearGradient id="linear-gradient-75" x1="150.23" y1="49.21" x2="298.46" y2="96.37" xlink:href="#linear-gradient-12"/><linearGradient id="linear-gradient-76" x1="149.49" y1="51.56" x2="297.71" y2="98.72" xlink:href="#linear-gradient-12"/><linearGradient id="linear-gradient-77" x1="148.74" y1="53.91" x2="296.96" y2="101.07" xlink:href="#linear-gradient-12"/><linearGradient id="linear-gradient-78" x1="147.99" y1="56.26" x2="296.21" y2="103.43" xlink:href="#linear-gradient-12"/><linearGradient id="linear-gradient-79" x1="147.24" y1="58.62" x2="295.46" y2="105.78" xlink:href="#linear-gradient-12"/><linearGradient id="linear-gradient-80" x1="146.49" y1="60.97" x2="294.71" y2="108.13" xlink:href="#linear-gradient-12"/><linearGradient id="linear-gradient-81" x1="145.74" y1="63.32" x2="293.96" y2="110.48" xlink:href="#linear-gradient-12"/><linearGradient id="linear-gradient-82" x1="144.99" y1="65.68" x2="293.21" y2="112.84" xlink:href="#linear-gradient-12"/><linearGradient id="linear-gradient-83" x1="710.31" y1="110.61" x2="516.83" y2="263.48" xlink:href="#linear-gradient-12"/><linearGradient id="linear-gradient-84" x1="177.07" y1="171.31" x2="782.81" y2="777.05" xlink:href="#linear-gradient-4"/><linearGradient id="linear-gradient-85" x1="447.49" y1="-98.95" x2="1053.23" y2="506.79" gradientTransform="translate(978.61 -372.2) rotate(135)" xlink:href="#linear-gradient-4"/><linearGradient id="linear-gradient-86" x1="266.85" y1="143.76" x2="872.59" y2="749.51" gradientTransform="translate(-90.05 395.95) rotate(-45)" xlink:href="#linear-gradient-4"/><linearGradient id="linear-gradient-87" x1="445.84" y1="187.38" x2="1051.58" y2="793.13" gradientTransform="translate(1292.41 165.05) rotate(135)" xlink:href="#linear-gradient-4"/><linearGradient id="linear-gradient-88" x1="334.61" y1="13.93" x2="940.35" y2="619.67" gradientTransform="translate(80.13 264.54) rotate(-45)" xlink:href="#linear-gradient-4"/><linearGradient id="linear-gradient-89" x1="132.25" y1="216.13" x2="737.99" y2="821.87" xlink:href="#linear-gradient-4"/><linearGradient id="linear-gradient-90" x1="105.15" y1="243.39" x2="710.89" y2="849.14" gradientTransform="translate(-57.67 326.28) rotate(-135)" xlink:href="#linear-gradient-4"/><linearGradient id="linear-gradient-91" x1="129.85" y1="218.69" x2="735.59" y2="824.43" gradientTransform="translate(279.12 970.68) rotate(-135)" xlink:href="#linear-gradient-4"/><linearGradient id="linear-gradient-92" x1="493.12" y1="-144.58" x2="1098.86" y2="461.16" gradientTransform="translate(264.57 -484.38) rotate(45)" xlink:href="#linear-gradient-4"/><linearGradient id="linear-gradient-93" x1="48.37" y1="160.1" x2="654.11" y2="765.84" gradientTransform="translate(734.67 459.54) rotate(135)" xlink:href="#linear-gradient-4"/><linearGradient id="linear-gradient-94" x1="222.31" y1="-140.85" x2="828.05" y2="464.88" xlink:href="#linear-gradient-4"/><linearGradient id="linear-gradient-95" x1="182.19" y1="166.35" x2="787.93" y2="772.1" gradientTransform="translate(72.06 4.68) rotate(135)" xlink:href="#linear-gradient-4"/><linearGradient id="linear-gradient-96" x1="-35.79" y1="384.33" x2="569.95" y2="990.06" gradientTransform="translate(-319.78 180.37) rotate(-45)" xlink:href="#linear-gradient-4"/><linearGradient id="linear-gradient-97" x1="246.09" y1="102.28" x2="851.83" y2="708.02" xlink:href="#linear-gradient-4"/><linearGradient id="linear-gradient-98" x1="178.66" y1="169.88" x2="784.39" y2="775.61" gradientTransform="translate(247.01 -108.7) rotate(45)" xlink:href="#linear-gradient-4"/><linearGradient id="linear-gradient-99" x1="293.92" y1="54.61" x2="899.67" y2="660.35" gradientTransform="translate(-114.23 616.7) rotate(-45)" xlink:href="#linear-gradient-4"/><linearGradient id="linear-gradient-100" x1="183.96" y1="164.58" x2="789.7" y2="770.32" gradientTransform="translate(1160.84 450.66) rotate(135)" xlink:href="#linear-gradient-4"/></defs><title>2304701</title><g class="cls-2"><g id="BACKGROUND_2" data-name="BACKGROUND 2"><g class="cls-3"><rect class="cls-4" x="-16.48" y="-10.99" width="782.97" height="521.98"/><path class="cls-5" d="M724.67,500.4c-7.92-23.66-34.87-39.19-59.3-34.18-13.65,2.8-25.5,10.92-38.24,16.54s-28.3,8.54-40.08,1.11c-13.08-8.25-16.34-25.48-19.54-40.61s-9.78-32.37-24.71-36.41c-16.07-4.34-32.44,9.45-48.86,6.67-16.62-2.81-25.62-20.74-30.87-36.77s-10.93-34.29-26.17-41.52c-23.73-11.26-53.71,12.36-77.13.46-14.4-7.32-19.88-25.11-31.83-36-20.29-18.46-52.26-12.46-78.37-20.87-25.66-8.28-41.57-31.73-47.17-57.08-3.84-17.37-1.87-36.38-14.38-50.48-36.75-41.41-107.68-21.18-122.18,30-12,42.24,15.73,87.32,7.11,130.36-5.38,26.87-24.7,52.1-19.05,78.92C58.22,431.1,76.16,445.75,94,456.74s37.56,20.69,49.78,37.76c15.93,22.25,16.42,53.4,34.45,74,23.38,26.67,65.42,24.43,99.59,14.95s69.65-24.1,103.87-14.79c20.82,5.66,38.21,19.56,56.48,31.05s39.81,21,60.9,16.47c30.88-6.69,49-40.57,78.82-51,38.3-13.42,83.32,15.68,120-1.75C720.43,552.68,732.59,524.05,724.67,500.4ZM321.56,331.52c-5.76-.53-10.53-2.47-16.39-1.72-5.47.7-10.78,2.3-16.13,3.55-14.34,3.36-29.2,1.37-41-7.88a26.58,26.58,0,0,1-8.09-9.58,14.57,14.57,0,0,1-.24-12.26c2.2-4.47,6.14-7.2,10.85-8.84,9-3.16,20.94-2.27,28.77-1.9,16.16.78,52.22,7.17,53.17,28.7C332.78,328.37,328.22,332.12,321.56,331.52Z"/><path class="cls-6" d="M370.14,143.59a108,108,0,0,0,74.75,22.09,38.7,38.7,0,0,1,41.2,32.63,142.36,142.36,0,0,0,69.52,101.33,38.71,38.71,0,0,1,15.59,49.84,71.83,71.83,0,0,0-3.22,8.19A69.87,69.87,0,1,0,695.6,345.34c-9.93-18-5.1-40.27,11.78-51.95a143.36,143.36,0,0,0,15.06-12c54.38-49.52,61.63-133.65,16.65-191.84a142.13,142.13,0,0,0-154.66-48.9c-19.43,6-40-4.42-47.55-23.32A108.43,108.43,0,0,0,347.3-4.45C314.36,42.73,324.47,108.58,370.14,143.59Z"/><path class="cls-7" d="M382.62-8.56c6.28,28.73,28.87,53.31,57,62,17.58,5.43,36.41,4.92,54.48,8.4S531,74.38,538,91.42c5.55,13.59,2.7,30.34,11.42,42.15,8.52,11.54,25.23,14.27,34.44,25.26,13.11,15.66,5.73,40.54,15.6,58.41,10.82,19.56,37.3,23.14,59.59,21.55s46.54-5.59,65.52,6.21c6.52,4.05,11.89,9.73,18.35,13.88s14.79,6.65,21.78,3.5c10.21-4.58,12.29-18.74,8.56-29.29-6.38-18.11-24-29.64-41.37-37.85s-36.17-14.83-49.71-28.43c-23.24-23.34-24.63-59.83-34.67-91.2C629,17.82,574.77-26.84,514.51-33.92c-13-1.53-27-1.74-37.64-9.44-8.1-5.88-12.81-15.22-17.54-24C449-86.75,424.75-104.64,404.69-86,384.85-67.61,377-34.26,382.62-8.56Z"/><path class="cls-8" d="M315,135a58.61,58.61,0,0,0-29.34-30.46A21,21,0,0,1,275,78.13a77.21,77.21,0,0,0-5.63-66.44,21,21,0,0,1,6-27.69,37.06,37.06,0,0,0,3.71-3,38.08,38.08,0,0,0,5.18-50.1,37.92,37.92,0,0,0-54.86-7.15,37.79,37.79,0,0,0-13.82,28.85A21.45,21.45,0,0,1,196.1-26a77.81,77.81,0,0,0-10.32,1.62c-38.92,8.78-64.89,46.52-59.28,86a77.15,77.15,0,0,0,59.85,64.53,21.18,21.18,0,0,1,16.18,23.75A58.83,58.83,0,1,0,315,135Z"/><path class="cls-9" d="M35.76-10.56C31.61,11.2,45,38.17,65.06,47.49c10.38,4.83,23.68,4.31,32.32-3.2,11.34-9.87,11.49-27.52,19.87-40,6.71-10,18.59-16.5,22.62-27.85,4.4-12.38-2.93-26.87-14.4-33.28C101.87-70,72.65-55.44,54.21-39.71,45.93-32.65,39.05-23.56,36.32-13,36.11-12.22,35.92-11.39,35.76-10.56Z"/><path class="cls-10" d="M2.22,18.84C18,27.35,27.31,46.34,24.45,64c-2.63,16.27-18.38,40.08,1.61,52.15,9.23,5.57,20.71,5.19,31.5,5.33s22.61,1.44,30.14,9.17c9,9.23,8,22.61,10.12,34.3A51.43,51.43,0,0,0,119.91,199c23.61,16.24,54.3,13.7,79.69,25.54,37.28,17.37,32.27,60.28,21.66,93.67C210.56,351.94,184,384.48,182,420.37c-1.25,22.44,20.63,39.27,41.07,41.95,30,3.93,56.1-17,85.52-16,18.26.6,35.51,16.81,54.38,12.53,19.48-4.41,31.57-24.26,51.53-27.88,22.88-4.14,44.73,18.1,45.5,41.34S445,516.86,425.22,529c-17.6,10.79-38.08,15.64-58.18,20.34L235.54,580.1c-16,3.75-32.6,7.51-48.79,4.54-19.34-3.55-35.78-16.29-54.64-21.87-31.17-9.2-64.15,2.05-96.22,7.32s-71.07,1.21-87.56-26.79c-12.17-20.66-7.35-47.08,1.3-69.44S-29.46,429.91-27.45,406c3.4-40.4-22.66-76.49-44.76-110.47S-114.08,219-97.78,181.9c11.58-26.35,40-45.65,41.63-74.38.78-13.89-5.15-27.23-6.88-41C-67.55,30.49-31.9.4,2.22,18.84Z"/><path class="cls-11" d="M18.72,180c22.67,29,69.06,24.28,98.53,46.33,24.43,18.26,32.49,51.46,32.56,82s-6.11,61-2.8,91.35,19.28,62.23,48.21,71.89c38.35,12.81,78.84-18.19,119-13.53,24.13,2.8,45.92,18.34,70.21,18.22,24.11-.11,48.61-15.64,71-6.69,19,7.6,27.74,31.76,22.18,51.46s-22.41,34.63-41.13,42.9-39.38,10.88-59.69,13.4L193.72,599.93c-34.51,4.27-69,8.54-103.71,11.12C59.13,613.34,26,613.73-.14,597c-22.51-14.4-35.89-39.12-48.33-62.77C-72.53,488.51-97.32,439-90.83,387.73c3.57-28.2,16.58-55.37,14.43-83.71-3-39.44-34.3-71.2-43.23-109.74A101.4,101.4,0,0,1-98,106.67C-77.57,83-43.74,62.37-14,81.93,21.94,105.61-6,148.44,18.72,180Z"/><path class="cls-12" d="M33.54,469.4c11.62-4.43,21.6-13.81,34-14.72,21.33-1.58,35.7,21.54,55.54,29.54,26,10.48,55.46-6.7,83.07-2,19.61,3.32,35.49,17.06,52.2,27.84s38.18,19,56,10.24c11.8-5.77,19.31-17.75,30.22-25.05,12.54-8.4,29.95-9.66,42.84-1.8s19.72,25.08,14.37,39.19c-6,15.94-24.51,23.82-41.54,24.54s-33.84-3.91-50.86-4.75c-28.28-1.39-55.86,7.66-83.24,14.86s-56.67,12.59-83.66,4C119,563.85,98.82,546.23,74.3,543c-22.89-3-45.94,7.2-68.86,4.46a62.68,62.68,0,0,1-46.29-30.82c-6-10.64-8.76-23.65-5-35.29C-34.36,445.36,10.41,478.21,33.54,469.4Z"/><path class="cls-13" d="M487.44,39.85c31.27,26.87,80.18,25.79,110.17,54.09,21.08,19.9,28.35,50.55,29.23,79.53s-3.58,58-1.33,86.93,12.68,59.19,36.38,75.9c11.4,8,25,12.32,37.35,18.73s24.35,16,27.88,29.54c5.41,20.65-10.43,40.49-14,61.53a54.55,54.55,0,0,0,77.12,58.49c30.23-14.32,40.75-52.6,39.41-86s-11-66.72-6.51-99.87c4-30.14,19.41-57.46,27.94-86.65,20.67-70.77.08-146.26-20.44-217.07-8.06-27.77-17.37-57.46-40.3-75.08a69.2,69.2,0,0,0-48.63-13.85c-27.37,2.76-51.19,21.66-78.6,24-21.82,1.87-43.05-7-62.65-16.74S561.24-87.5,539.55-90.58C468-100.75,436.5-3.89,487.44,39.85Z"/><path class="cls-14" d="M473-25.28c.37,24.7,20.33,49,44.26,58.63,32,12.9,68.74,3.7,102.2,12a99.75,99.75,0,0,1,72.86,120.92c-3.44,13.84-9.82,26.82-13.27,40.67s-3.58,29.55,4.62,41.22c12.54,17.84,41.79,23.08,45.88,44.5,4,20.81-20.29,42.2-10.24,60.85,8.68,16.1,35.73,13.9,44.46,30,5.3,9.75,1.2,22-4.94,31.26s-14.3,17.38-18,27.83c-8.28,23.19,11.18,50.29,35.51,54.09s49-12.13,60.14-34.07,10.67-48.36,3.92-72c-7.09-24.86-20.71-48.15-22.55-73.94-1.94-27.32,9.57-53.52,18-79.58s13.58-55.94.06-79.76c-10.4-18.3-30.37-30.1-39-49.29-9.49-21.09-3.08-45.47,2-68s7.88-48.67-6.75-66.57c-17.6-21.52-50.76-20-77.77-13.34-20.63,5.05-43.17,13.62-64.36,9s-40.46-15.5-59.84-24.89C560.77-70.11,512.33-86.15,486-57.78,476.68-47.74,472.83-36.46,473-25.28Z"/><path class="cls-15" d="M599.87-25.83A43.26,43.26,0,0,0,619.81,8c10.64,6.64,23.53,8.23,35.81,10.82s25.15,6.89,32.67,16.93c7.15,9.54,8,22.2,9.65,34s5.38,24.69,15.59,30.86c9.37,5.67,21.68,4,31.4,9,9.34,4.85,14.54,14.85,19.88,23.91s12.46,18.45,22.81,20.32c8.08,1.46,16.45-2.25,22.29-8s9.5-13.37,12.42-21a153.59,153.59,0,0,0-2.15-113.39C815-.7,808.19-12.38,805.79-25.39c-2.49-13.52-.43-28.89-9-39.66-7.38-9.29-20.75-11.9-32.43-9.84s-22.26,8-32.93,13.15-22.17,9.8-34,9c-10-.69-19.31-5.21-28.41-9.45-17.4-8.12-33.4-11-50.86-1.31C605.7-56.55,599.16-39.58,599.87-25.83Z"/><path class="cls-16" d="M982,183c17.19,2.64,34.27-6.71,46-19.45,10.4-11.35,17.25-25.54,22.52-40.07a293.8,293.8,0,0,0,14.69-60c7.18-51.8,1.91-105.58-16.45-154-8.54-22.54-20.14-44.18-24.25-68.1-4.27-24.89-1.28-52.7-16.12-73-14-19.18-39.11-26.65-62.25-25s-45,10.51-66.75,19.83c-20.11,8.63-41.91,17.36-64.57,16.72-18.8-.53-36.46-7.49-53.71-13.9-32.81-12.19-63.1-15.46-95,3.53-23.44,14-36,45.45-34.78,71.51,1.17,25.39,15.14,50,37.1,64.61,19.74,13.12,43.9,16.88,67,22.39,22,5.25,44.88,13.12,59.53,30.12Q796-40.53,797-39.2c13.79,17.9,16.24,41.49,20,63.74s10.61,46.51,28.93,59c16.48,11.21,38.29,9.71,55.79,19.61,16.82,9.54,26.77,27.72,37.11,44S962.78,180.08,982,183Z"/><path class="cls-17" d="M977.41,136.06c16.06,1.92,31.23-8.21,41.27-20.69,7.63-9.48,12.93-20.71,16.84-32.34a250.55,250.55,0,0,0,10.74-47.86c5.32-41.2,2.64-83.8-9.37-122.68-5.38-17.41-13.06-34.19-15.83-52.5-2.88-19.07-1.44-39.89-11.83-56-11.22-17.35-31.09-26.28-50.85-27.67s-39.42,3-58.69,9.81c-15.9,5.61-33.46,12.44-51.92,13-14.84.48-29-3.19-42.9-6.36-26.07-6-50.33-5.76-74.47,10-18.59,12.15-28.75,36.56-28,57.47.73,19.89,11.23,39.49,28.93,52.34,15.32,11.12,34.33,15,52.59,20.19,17.39,4.89,35.42,11.53,47.38,25,.6.67,1.18,1.36,1.74,2.06C844.34-26,847.39-7.54,851.07,10.16s9,36.9,22.47,47.87c11.67,9.51,27.34,10.34,40.25,18.68,12.45,8.06,20.53,21.68,29.08,33.6S962.44,134.27,977.41,136.06Z"/><rect class="cls-1" width="750" height="500"/><path class="cls-18" d="M-71.21,297.83a1,1,0,0,1-.71-.29,1,1,0,0,1,0-1.42L11.2,213a1,1,0,0,1,1.41,0,1,1,0,0,1,0,1.42l-83.12,83.12A1,1,0,0,1-71.21,297.83Z"/><path class="cls-19" d="M-73,311a1,1,0,0,1-.71-.29,1,1,0,0,1,0-1.41L24.39,211.2a1,1,0,1,1,1.42,1.42l-98.12,98.11A1,1,0,0,1-73,311Z"/><path class="cls-20" d="M-73.25,322.66a1,1,0,0,1-.71-.3A1,1,0,0,1-74,321L36,211a1,1,0,0,1,1.42,0,1,1,0,0,1,0,1.41l-110,110A1,1,0,0,1-73.25,322.66Z"/><path class="cls-21" d="M-72.37,333.17a1,1,0,0,1-.71-.29,1,1,0,0,1,0-1.42L46.54,211.85A1,1,0,0,1,48,213.26L-71.66,332.88A1,1,0,0,1-72.37,333.17Z"/><path class="cls-22" d="M-70.61,342.81a1,1,0,0,1-.71-.29,1,1,0,0,1,0-1.41L56.18,213.6A1,1,0,1,1,57.59,215l-127.5,127.5A1,1,0,0,1-70.61,342.81Z"/><path class="cls-23" d="M-68.15,351.74a1,1,0,0,1-.7-.29,1,1,0,0,1,0-1.42l134-134a1,1,0,0,1,1.41,0,1,1,0,0,1,0,1.42l-134,134A1,1,0,0,1-68.15,351.74Z"/><path class="cls-24" d="M-65.07,360.07a1,1,0,0,1-.71-.3,1,1,0,0,1,0-1.41L73.43,219.14a1,1,0,0,1,1.42,1.42L-64.37,359.77A1,1,0,0,1-65.07,360.07Z"/><path class="cls-25" d="M-61.45,367.84a1,1,0,0,1-.71-.29,1,1,0,0,1,0-1.42L81.21,222.77a1,1,0,0,1,1.41,1.41L-60.74,367.55A1,1,0,0,1-61.45,367.84Z"/><path class="cls-26" d="M-57.3,375.09a1,1,0,0,1-.71-.3,1,1,0,0,1,0-1.41L88.45,226.91a1,1,0,0,1,1.42,1.42L-56.6,374.79A1,1,0,0,1-57.3,375.09Z"/><path class="cls-27" d="M-52.72,381.9a1,1,0,0,1-.71-.29,1,1,0,0,1,0-1.42L95.27,231.5a1,1,0,1,1,1.41,1.41L-52,381.61A1,1,0,0,1-52.72,381.9Z"/><path class="cls-28" d="M-47.65,388.22a1,1,0,0,1-.7-.29,1,1,0,0,1,0-1.42L101.59,236.57a1,1,0,0,1,1.41,0,1,1,0,0,1,0,1.42L-46.94,387.93A1,1,0,0,1-47.65,388.22Z"/><path class="cls-29" d="M-42.18,394.16a1,1,0,0,1-.71-.3,1,1,0,0,1,0-1.41L107.52,242a1,1,0,0,1,1.42,1.42L-41.48,393.86A1,1,0,0,1-42.18,394.16Z"/><path class="cls-30" d="M-36.25,399.62a1,1,0,0,1-.71-.3,1,1,0,0,1,0-1.41L113,248a1,1,0,0,1,1.41,1.41L-35.54,399.32A1,1,0,0,1-36.25,399.62Z"/><path class="cls-31" d="M-29.93,404.69a1,1,0,0,1-.71-.29,1,1,0,0,1,0-1.41l148.7-148.7a1,1,0,0,1,1.42,0,1,1,0,0,1,0,1.41L-29.22,404.4A1,1,0,0,1-29.93,404.69Z"/><path class="cls-32" d="M-23.12,409.28a1,1,0,0,1-.7-.3,1,1,0,0,1,0-1.41L122.64,261.1a1,1,0,0,1,1.42,1.42L-22.41,409A1,1,0,0,1-23.12,409.28Z"/><path class="cls-33" d="M-15.87,413.42a1,1,0,0,1-.7-.29,1,1,0,0,1,0-1.41L126.79,268.35a1,1,0,0,1,1.41,0,1,1,0,0,1,0,1.41L-15.16,413.13A1,1,0,0,1-15.87,413.42Z"/><path class="cls-34" d="M-8.09,417.05a1,1,0,0,1-.71-.3,1,1,0,0,1,0-1.41L130.41,276.12a1,1,0,0,1,1.42,1.42L-7.39,416.75A1,1,0,0,1-8.09,417.05Z"/><path class="cls-35" d="M.23,420.12a1,1,0,0,1-.71-.3,1,1,0,0,1,0-1.41l134-134a1,1,0,1,1,1.41,1.41l-134,134A1,1,0,0,1,.23,420.12Z"/><path class="cls-36" d="M9.16,422.59a1,1,0,0,1-.71-1.71L136,293.38a1,1,0,0,1,1.42,0,1,1,0,0,1,0,1.41L9.86,422.29A1,1,0,0,1,9.16,422.59Z"/><path class="cls-37" d="M18.8,424.34a1,1,0,0,1-.71-.29,1,1,0,0,1,0-1.42L137.71,303a1,1,0,0,1,1.41,1.41L19.51,424.05A1,1,0,0,1,18.8,424.34Z"/><path class="cls-38" d="M29.32,425.22a1,1,0,0,1-.71-1.71l110-110a1,1,0,0,1,1.41,0,1,1,0,0,1,0,1.42l-110,110A1,1,0,0,1,29.32,425.22Z"/><path class="cls-39" d="M41,425a1,1,0,0,1-.71-1.71l98.11-98.11a1,1,0,0,1,1.42,1.41L41.65,424.69A1,1,0,0,1,41,425Z"/><path class="cls-40" d="M54.14,423.19a1,1,0,0,1-.7-1.71l83.11-83.12a1,1,0,0,1,1.42,0,1,1,0,0,1,0,1.41L54.85,422.89A1,1,0,0,1,54.14,423.19Z"/><path class="cls-41" d="M70.09,418.64a1,1,0,0,1-.71-.3,1,1,0,0,1,0-1.41L132,354.3a1,1,0,0,1,1.41,0,1,1,0,0,1,0,1.42L70.79,418.34A1,1,0,0,1,70.09,418.64Z"/><path class="cls-42" d="M94.15,406a1,1,0,0,1-.71-.29,1,1,0,0,1,0-1.41l25.9-25.9a1,1,0,0,1,1.41,0,1,1,0,0,1,0,1.41l-25.9,25.9A1,1,0,0,1,94.15,406Z"/><path class="cls-43" d="M505.77,486a1,1,0,0,1-.71-.29,1,1,0,0,1,0-1.41L525.8,463.5a1,1,0,0,1,1.42,1.42l-20.74,20.74A1,1,0,0,1,505.77,486Z"/><path class="cls-44" d="M495.63,505.22a1,1,0,0,1-.71-1.71l50.15-50.15a1,1,0,0,1,1.42,0,1,1,0,0,1,0,1.41l-50.16,50.16A1,1,0,0,1,495.63,505.22Z"/><path class="cls-45" d="M492,518a1,1,0,0,1-.7-1.71l66.56-66.56a1,1,0,0,1,1.42,0,1,1,0,0,1,0,1.41L492.69,517.7A1,1,0,0,1,492,518Z"/><path class="cls-46" d="M490.54,528.56a1,1,0,0,1-.7-1.71l78.57-78.57a1,1,0,0,1,1.41,1.41l-78.57,78.57A1,1,0,0,1,490.54,528.56Z"/><path class="cls-47" d="M490.35,537.87a1,1,0,0,1-.7-.29,1,1,0,0,1,0-1.41l88.07-88.08a1,1,0,0,1,1.42,0,1,1,0,0,1,0,1.41l-88.08,88.08A1,1,0,0,1,490.35,537.87Z"/><path class="cls-48" d="M491.06,546.29a1,1,0,0,1-.71-.29,1,1,0,0,1,0-1.41l95.79-95.79a1,1,0,0,1,1.42,1.41L491.77,546A1,1,0,0,1,491.06,546.29Z"/><path class="cls-49" d="M492.46,554a1,1,0,0,1-.7-.3,1,1,0,0,1,0-1.41L593.87,450.2a1,1,0,1,1,1.41,1.41L493.17,553.72A1,1,0,0,1,492.46,554Z"/><path class="cls-50" d="M494.44,561.17a1,1,0,0,1-.71-1.71L601,452.18a1,1,0,0,1,1.41,1.41L495.15,560.87A1,1,0,0,1,494.44,561.17Z"/><path class="cls-51" d="M496.9,567.83a1,1,0,0,1-.71-.29,1,1,0,0,1,0-1.41L607.68,454.64a1,1,0,0,1,1.42,0,1,1,0,0,1,0,1.41L497.61,567.54A1,1,0,0,1,496.9,567.83Z"/><path class="cls-52" d="M499.8,574.06a1,1,0,0,1-.7-1.71L613.91,457.54a1,1,0,0,1,1.41,1.41L500.51,573.76A1,1,0,0,1,499.8,574.06Z"/><path class="cls-53" d="M503.12,579.86a1,1,0,0,1-.7-1.7l117.29-117.3a1,1,0,0,1,1.42,0,1,1,0,0,1,0,1.41l-117.3,117.3A1,1,0,0,1,503.12,579.86Z"/><path class="cls-54" d="M506.79,585.32a1,1,0,0,1-.7-1.71L625.17,464.53a1,1,0,0,1,1.41,1.41L507.5,585A1,1,0,0,1,506.79,585.32Z"/><path class="cls-55" d="M510.86,590.38a1,1,0,0,1-.71-.29,1,1,0,0,1,0-1.42L630.23,468.59a1,1,0,1,1,1.42,1.42L511.56,590.09A1,1,0,0,1,510.86,590.38Z"/><path class="cls-56" d="M515.23,595.13a1,1,0,0,1-.71-1.7L635,473a1,1,0,0,1,1.42,0,1,1,0,0,1,0,1.41L515.94,594.84A1,1,0,0,1,515.23,595.13Z"/><path class="cls-57" d="M520,599.51a1,1,0,0,1-.7-.3,1,1,0,0,1,0-1.41L639.36,477.72a1,1,0,1,1,1.41,1.41L520.69,599.21A1,1,0,0,1,520,599.51Z"/><path class="cls-58" d="M525.05,603.57a1,1,0,0,1-.71-1.71L643.42,482.78a1,1,0,0,1,1.42,1.42L525.75,603.28A1,1,0,0,1,525.05,603.57Z"/><path class="cls-59" d="M530.5,607.24a1,1,0,0,1-.7-.29,1,1,0,0,1,0-1.42L647.09,488.24a1,1,0,0,1,1.42,0,1,1,0,0,1,0,1.41L531.21,607A1,1,0,0,1,530.5,607.24Z"/><path class="cls-60" d="M536.31,610.56a1,1,0,0,1-.71-.29,1,1,0,0,1,0-1.41L650.41,494a1,1,0,0,1,1.42,1.42L537,610.27A1,1,0,0,1,536.31,610.56Z"/><path class="cls-61" d="M542.53,613.46a1,1,0,0,1-.7-.29,1,1,0,0,1,0-1.41L653.31,500.27a1,1,0,0,1,1.42,0,1,1,0,0,1,0,1.41L543.24,613.17A1,1,0,0,1,542.53,613.46Z"/><path class="cls-62" d="M145.51,10.74a.91.91,0,0,1-.63-.26.89.89,0,0,1,0-1.25L162.16-8a.86.86,0,0,1,1.24,0,.86.86,0,0,1,0,1.24L146.13,10.48A.89.89,0,0,1,145.51,10.74Z"/><path class="cls-63" d="M137.06,26.78a.86.86,0,0,1-.62-.25.88.88,0,0,1,0-1.25l41.77-41.77a.88.88,0,0,1,1.24,0,.88.88,0,0,1,0,1.25L137.68,26.53A.88.88,0,0,1,137.06,26.78Z"/><path class="cls-64" d="M134,37.42a.91.91,0,0,1-.63-.26.89.89,0,0,1,0-1.25l55.44-55.43a.88.88,0,0,1,1.25,0,.88.88,0,0,1,0,1.24L134.65,37.16A.89.89,0,0,1,134,37.42Z"/><path class="cls-65" d="M132.83,46.22a.89.89,0,0,1-.63-1.51l65.44-65.43a.88.88,0,0,1,1.25,0,.88.88,0,0,1,0,1.24L133.45,46A.89.89,0,0,1,132.83,46.22Z"/><path class="cls-66" d="M132.67,54a.89.89,0,0,1-.62-1.51L205.4-20.88a.86.86,0,0,1,1.24,0,.86.86,0,0,1,0,1.24L133.29,53.72A.89.89,0,0,1,132.67,54Z"/><path class="cls-67" d="M133.26,61a.91.91,0,0,1-.63-.26.88.88,0,0,1,0-1.24l79.78-79.78a.88.88,0,0,1,1.25,0,.88.88,0,0,1,0,1.24L133.88,60.73A.89.89,0,0,1,133.26,61Z"/><path class="cls-68" d="M134.43,67.42a.91.91,0,0,1-.63-.26.88.88,0,0,1,0-1.24l85-85a.88.88,0,0,1,1.25,0,.88.88,0,0,1,0,1.24l-85,85A.89.89,0,0,1,134.43,67.42Z"/><path class="cls-69" d="M136.07,73.38a.89.89,0,0,1-.62-.26.88.88,0,0,1,0-1.25L224.8-17.48a.88.88,0,0,1,1.24,0,.88.88,0,0,1,0,1.25L136.69,73.12A.87.87,0,0,1,136.07,73.38Z"/><path class="cls-70" d="M138.12,78.93a.89.89,0,0,1-.62-.26.88.88,0,0,1,0-1.25l92.85-92.85a.89.89,0,0,1,1.25,0,.89.89,0,0,1,0,1.25L138.74,78.67A.87.87,0,0,1,138.12,78.93Z"/><path class="cls-71" d="M140.54,84.11a.87.87,0,0,1-.63-.26.88.88,0,0,1,0-1.24L235.53-13a.88.88,0,0,1,1.25,0,.88.88,0,0,1,0,1.24L141.16,83.85A.85.85,0,0,1,140.54,84.11Z"/><path class="cls-72" d="M143.3,89a.89.89,0,0,1-.62-1.51l97.69-97.69a.89.89,0,0,1,1.25,0,.89.89,0,0,1,0,1.25L143.93,88.69A.91.91,0,0,1,143.3,89Z"/><path class="cls-73" d="M146.36,93.49a.88.88,0,0,1-.62-1.5L244.91-7.19a.89.89,0,0,1,1.25,0,.89.89,0,0,1,0,1.25L147,93.23A.89.89,0,0,1,146.36,93.49Z"/><path class="cls-74" d="M149.74,97.71a.89.89,0,0,1-.62-1.51l100-100a.86.86,0,0,1,1.24,0,.86.86,0,0,1,0,1.24l-100,100A.89.89,0,0,1,149.74,97.71Z"/><path class="cls-75" d="M153.39,101.66a.88.88,0,0,1-.63-1.5L253.09-.16a.86.86,0,0,1,1.24,0,.86.86,0,0,1,0,1.24L154,101.41A.88.88,0,0,1,153.39,101.66Z"/><path class="cls-76" d="M157.35,105.31a.89.89,0,0,1-.63-1.51l100-100A.88.88,0,1,1,258,5l-100,100A.89.89,0,0,1,157.35,105.31Z"/><path class="cls-77" d="M161.56,108.69a.85.85,0,0,1-.62-.26.86.86,0,0,1,0-1.24L260.12,8a.88.88,0,0,1,1.24,1.25l-99.18,99.17A.83.83,0,0,1,161.56,108.69Z"/><path class="cls-78" d="M166.11,111.75a.89.89,0,0,1-.63-1.51l97.69-97.68a.88.88,0,1,1,1.25,1.24l-97.69,97.69A.89.89,0,0,1,166.11,111.75Z"/><path class="cls-79" d="M170.94,114.52a.89.89,0,0,1-.62-.26.88.88,0,0,1,0-1.25l95.62-95.62a.88.88,0,0,1,1.24,1.25l-95.62,95.62A.87.87,0,0,1,170.94,114.52Z"/><path class="cls-80" d="M176.12,116.93a.85.85,0,0,1-.62-.26.88.88,0,0,1,0-1.24l92.85-92.85a.88.88,0,1,1,1.25,1.24l-92.85,92.85A.85.85,0,0,1,176.12,116.93Z"/><path class="cls-81" d="M181.68,119a.91.91,0,0,1-.63-.26.88.88,0,0,1,0-1.24L270.4,28.13a.88.88,0,1,1,1.25,1.24L182.3,118.72A.89.89,0,0,1,181.68,119Z"/><path class="cls-82" d="M187.63,120.63a.89.89,0,0,1-.62-1.51l85-85a.88.88,0,0,1,1.25,1.25l-85,85A.91.91,0,0,1,187.63,120.63Z"/><path class="cls-83" d="M194.06,121.8a.89.89,0,0,1-.62-1.51l79.78-79.78a.88.88,0,1,1,1.24,1.25l-79.77,79.78A.91.91,0,0,1,194.06,121.8Z"/><path class="cls-84" d="M201.08,122.38a.88.88,0,0,1-.63-1.5l73.36-73.35a.88.88,0,0,1,1.24,1.24L201.7,122.13A.88.88,0,0,1,201.08,122.38Z"/><path class="cls-85" d="M208.83,122.23a.89.89,0,0,1-.62-1.51l65.44-65.44a.88.88,0,0,1,1.25,1.25L209.46,122A.89.89,0,0,1,208.83,122.23Z"/><path class="cls-86" d="M217.64,121a.89.89,0,0,1-.63-1.51l55.44-55.43a.88.88,0,0,1,1.25,1.24l-55.44,55.44A.89.89,0,0,1,217.64,121Z"/><path class="cls-87" d="M228.27,118a.83.83,0,0,1-.62-.26.86.86,0,0,1,0-1.24l41.77-41.77A.88.88,0,0,1,270.66,76l-41.77,41.76A.85.85,0,0,1,228.27,118Z"/><path class="cls-88" d="M244.32,109.55a.91.91,0,0,1-.63-.26.89.89,0,0,1,0-1.25L261,90.77A.88.88,0,1,1,262.21,92l-17.27,17.28A.89.89,0,0,1,244.32,109.55Z"/><path class="cls-89" d="M515.29,118.89a.93.93,0,0,1-.66-.27,1,1,0,0,1,0-1.33L543.89,88a.94.94,0,1,1,1.33,1.33L516,118.62A1,1,0,0,1,515.29,118.89ZM501.65,145.8,572.4,75.05a.94.94,0,1,0-1.32-1.33l-70.76,70.76a.94.94,0,0,0,0,1.32,1,1,0,0,0,.67.28A1,1,0,0,0,501.65,145.8Zm-5.14,18,93.91-93.9a.94.94,0,0,0-1.33-1.33l-93.9,93.91a.92.92,0,0,0,0,1.32.92.92,0,0,0,1.32,0Zm-2,14.91L605.32,67.88a.94.94,0,0,0,0-1.33.92.92,0,0,0-1.32,0L493.15,177.4a.94.94,0,1,0,1.33,1.32Zm-.27,13.14L618.47,67.61a.94.94,0,1,0-1.33-1.33L492.89,190.54a.92.92,0,0,0,0,1.32.92.92,0,0,0,1.32,0Zm1,11.88L630.34,68.61a.94.94,0,0,0,0-1.33.92.92,0,0,0-1.32,0L493.88,202.42a.94.94,0,0,0,0,1.32.9.9,0,0,0,.66.28A.94.94,0,0,0,495.21,203.74Zm2,10.9,144.05-144a.94.94,0,1,0-1.33-1.33l-144,144.05a1,1,0,0,0,0,1.33,1,1,0,0,0,.67.27A.93.93,0,0,0,497.19,214.64ZM500,224.72,651.33,73.37A.94.94,0,0,0,650,72.05L498.65,223.4a.92.92,0,0,0,0,1.32.9.9,0,0,0,.66.28A.94.94,0,0,0,500,224.72Zm3.47,9.41L660.73,76.85a.94.94,0,1,0-1.33-1.33L502.12,232.8a1,1,0,0,0,0,1.33.93.93,0,0,0,.66.27A1,1,0,0,0,503.45,234.13Zm4.09,8.78,162-162a.94.94,0,0,0-1.32-1.33l-162,162a.93.93,0,0,0,1.32,1.32Zm4.69,8.19L677.7,85.62a.93.93,0,0,0-1.32-1.32L510.9,249.77a1,1,0,0,0,0,1.33.93.93,0,0,0,.66.27A1,1,0,0,0,512.23,251.1Zm5.17,7.7,168-168a.93.93,0,0,0-1.32-1.32l-168,168a.94.94,0,0,0,1.32,1.33Zm5.74,7.14,169.4-169.4a.94.94,0,0,0,0-1.33.92.92,0,0,0-1.32,0L521.81,264.61a1,1,0,0,0,0,1.33.93.93,0,0,0,.66.27A1,1,0,0,0,523.14,265.94Zm6.17,6.7L699.25,102.71a1,1,0,0,0,0-1.33.94.94,0,0,0-1.33,0L528,271.32a.94.94,0,0,0,0,1.32.9.9,0,0,0,.66.28A.94.94,0,0,0,529.31,272.64Zm6.7,6.17,169.41-169.4a.94.94,0,0,0-1.33-1.32l-169.4,169.4a.92.92,0,0,0,0,1.32.92.92,0,0,0,1.32,0Zm7.14,5.74,168-168a.93.93,0,0,0-1.32-1.32l-168,168a.94.94,0,0,0,1.32,1.33Zm7.7,5.18L716.33,124.25a.94.94,0,0,0-1.33-1.33L549.53,288.4a.94.94,0,0,0,1.32,1.33Zm8.19,4.68,162-162a.94.94,0,0,0-1.32-1.33l-162,162a.92.92,0,0,0,0,1.32.92.92,0,0,0,1.32,0Zm8.78,4.09L725.11,141.22a.94.94,0,0,0-1.33-1.32L566.5,297.18a.92.92,0,0,0,0,1.32.92.92,0,0,0,1.32,0Zm9.41,3.47L728.58,150.63a1,1,0,0,0,0-1.33.94.94,0,0,0-1.33,0L575.9,300.65a.94.94,0,0,0,0,1.32.9.9,0,0,0,.66.28A.94.94,0,0,0,577.23,302Zm10.08,2.79,144.05-144a.93.93,0,1,0-1.32-1.32L586,303.44a.92.92,0,0,0,0,1.32.92.92,0,0,0,1.32,0Zm10.9,2L733.35,171.61a.94.94,0,0,0-1.33-1.33L596.88,305.42a.94.94,0,0,0,.67,1.6A.9.9,0,0,0,598.21,306.74Zm11.88,1L734.34,183.49a.94.94,0,0,0,0-1.33.92.92,0,0,0-1.32,0L608.76,306.41a1,1,0,0,0,0,1.33,1,1,0,0,0,.67.27A1,1,0,0,0,610.09,307.74Zm13.14-.27L734.07,196.63a.94.94,0,1,0-1.32-1.33L621.9,306.15a.94.94,0,0,0,.67,1.6A.9.9,0,0,0,623.23,307.47Zm14.91-2,93.9-93.9a.94.94,0,0,0,0-1.33.92.92,0,0,0-1.32,0l-93.91,93.91a.94.94,0,0,0,.66,1.6A1,1,0,0,0,638.14,305.44Zm18-5.14,70.75-70.75a.94.94,0,1,0-1.32-1.33L654.82,299a.94.94,0,0,0,.67,1.6A.9.9,0,0,0,656.15,300.3ZM683.33,286l29.27-29.26a.94.94,0,0,0-1.33-1.32L682,284.67a.92.92,0,0,0,0,1.32.92.92,0,0,0,1.32,0Z"/><g class="cls-90"><path class="cls-91" d="M686.67,371.83a.7.7,0,1,1,.7.7A.69.69,0,0,1,686.67,371.83Z"/><circle class="cls-91" cx="660.63" cy="402.41" r="1.01"/><path class="cls-91" d="M510.6,334.12a1.76,1.76,0,1,1,1.76,1.76A1.75,1.75,0,0,1,510.6,334.12Z"/><path class="cls-91" d="M375,412.93a1.76,1.76,0,1,1,1.76,1.75A1.76,1.76,0,0,1,375,412.93Z"/><circle class="cls-91" cx="516.08" cy="445.1" r="1.01"/><circle class="cls-91" cx="370.19" cy="404.44" r="1.01"/><circle class="cls-91" cx="730.79" cy="444.09" r="1.4"/><circle class="cls-91" cx="561.77" cy="327.73" r="1.15"/><path class="cls-91" d="M675.35,369.23a2.16,2.16,0,1,1,2.16,2.16A2.16,2.16,0,0,1,675.35,369.23Z"/><path class="cls-91" d="M730.67,320.58a1.52,1.52,0,1,1,1.52,1.52A1.52,1.52,0,0,1,730.67,320.58Z"/><path class="cls-91" d="M417.07,111.75a1.9,1.9,0,1,1,1.9,1.89A1.89,1.89,0,0,1,417.07,111.75Z"/><circle class="cls-91" cx="456.7" cy="147.19" r="1.28"/><path class="cls-91" d="M380.85,312.91a1.41,1.41,0,1,1,1.4,1.41A1.4,1.4,0,0,1,380.85,312.91Z"/><path class="cls-91" d="M342.92,217.9a2.18,2.18,0,1,1,2.17,2.17A2.17,2.17,0,0,1,342.92,217.9Z"/><path class="cls-91" d="M355.39,210.65a1.05,1.05,0,1,1,1.05,1A1.06,1.06,0,0,1,355.39,210.65Z"/><circle class="cls-91" cx="266.09" cy="317.95" r="1.55"/><path class="cls-91" d="M201.1,416.08a1.4,1.4,0,1,1,1.4,1.4A1.4,1.4,0,0,1,201.1,416.08Z"/><path class="cls-91" d="M188.49,418.56a1.08,1.08,0,1,1,1.08,1.08A1.08,1.08,0,0,1,188.49,418.56Z"/><path class="cls-91" d="M71,436.66a2.16,2.16,0,1,1,2.16,2.16A2.16,2.16,0,0,1,71,436.66Z"/><circle class="cls-91" cx="23.15" cy="445.1" r="2.57"/><path class="cls-91" d="M9.94,437.74A1.08,1.08,0,1,1,11,438.82,1.08,1.08,0,0,1,9.94,437.74Z"/><circle class="cls-91" cx="173.15" cy="359.42" r="2.06"/><path class="cls-91" d="M181.28,350.17a1.18,1.18,0,1,1,1.18,1.18A1.18,1.18,0,0,1,181.28,350.17Z"/><path class="cls-91" d="M130.14,176.76a1.73,1.73,0,1,1,1.73,1.73A1.74,1.74,0,0,1,130.14,176.76Z"/><circle class="cls-91" cx="483.16" cy="311.47" r="0.76"/><path class="cls-91" d="M283.05,155.57a1.87,1.87,0,1,1,1.86,1.86A1.87,1.87,0,0,1,283.05,155.57Z"/><path class="cls-91" d="M276.67,153.78a2.38,2.38,0,1,0-2.38,2.37A2.38,2.38,0,0,0,276.67,153.78Z"/><path class="cls-91" d="M301.33,13.89a2.55,2.55,0,1,1,2.55,2.54A2.55,2.55,0,0,1,301.33,13.89Z"/><path class="cls-91" d="M81.15,29.63a1.76,1.76,0,1,1,1.76,1.76A1.76,1.76,0,0,1,81.15,29.63Z"/><path class="cls-91" d="M29.41,85A1.55,1.55,0,1,1,31,86.51,1.55,1.55,0,0,1,29.41,85Z"/><path class="cls-91" d="M473.81,96.42a1.92,1.92,0,1,1,1.92,1.92A1.91,1.91,0,0,1,473.81,96.42Z"/><path class="cls-91" d="M456.7,15.23a1.62,1.62,0,1,1,1.62,1.62A1.63,1.63,0,0,1,456.7,15.23Z"/><path class="cls-91" d="M452.11,23.13a.81.81,0,1,1,.81.81A.81.81,0,0,1,452.11,23.13Z"/><path class="cls-91" d="M734.5,50.62a1.94,1.94,0,1,1,1.94,1.94A1.93,1.93,0,0,1,734.5,50.62Z"/><path class="cls-91" d="M703.64,25.19a2.69,2.69,0,1,1,2.68,2.68A2.68,2.68,0,0,1,703.64,25.19Z"/><path class="cls-91" d="M701.74,18.71a1.47,1.47,0,1,1,1.47,1.48A1.47,1.47,0,0,1,701.74,18.71Z"/><path class="cls-91" d="M621.15,409.28a1.41,1.41,0,1,1,1.4,1.4A1.41,1.41,0,0,1,621.15,409.28Z"/><circle class="cls-91" cx="242.34" cy="446.12" r="2.03"/><path class="cls-91" d="M177.91,320a.54.54,0,1,1,.54.54A.54.54,0,0,1,177.91,320Z"/></g><polygon class="cls-92" points="87.13 90.51 93.82 78.93 100.51 90.51 87.13 90.51"/><polygon class="cls-93" points="566.97 7.73 570.43 20.65 557.51 17.19 566.97 7.73"/><polygon class="cls-94" points="432.35 315.38 428.88 302.46 441.8 305.92 432.35 315.38"/><polygon class="cls-95" points="612.6 341.35 616.06 354.27 603.14 350.8 612.6 341.35"/><polygon class="cls-96" points="358.81 44.24 355.35 31.33 368.27 34.79 358.81 44.24"/><polygon class="cls-97" points="192.46 281.62 196.33 274.92 200.19 281.62 192.46 281.62"/><polygon class="cls-98" points="43.83 175.4 36.35 177.4 38.35 169.93 43.83 175.4"/><polygon class="cls-99" points="345.68 427.84 338.21 429.85 340.21 422.37 345.68 427.84"/><polygon class="cls-100" points="711.74 76.86 719.22 74.86 717.22 82.33 711.74 76.86"/><polygon class="cls-101" points="272.48 376.8 274.48 384.27 267 382.27 272.48 376.8"/><polygon class="cls-102" points="442.25 84.38 446.12 77.67 449.99 84.38 442.25 84.38"/><polygon class="cls-103" points="35.37 12.13 37.38 19.61 29.9 17.61 35.37 12.13"/><polygon class="cls-104" points="57.52 481.17 55.52 473.69 62.99 475.69 57.52 481.17"/><polygon class="cls-105" points="522.5 383.98 526.37 377.28 530.24 383.98 522.5 383.98"/><polygon class="cls-106" points="249.49 243.51 256.96 241.5 254.96 248.98 249.49 243.51"/><polygon class="cls-107" points="687 451.22 685 443.75 692.47 445.75 687 451.22"/><polygon class="cls-108" points="487.4 460.62 489.4 468.09 481.93 466.09 487.4 460.62"/></g></g></g></svg>