<?xml version="1.0" encoding="utf-8"?>
<!-- Generator: Adobe Illustrator 22.1.0, SVG Export Plug-In . SVG Version: 6.00 Build 0)  -->
<svg version="1.1" id="Layer_1" xmlns="http://www.w3.org/2000/svg" xmlns:xlink="http://www.w3.org/1999/xlink" x="0px" y="0px"
	 viewBox="0 0 841.9 247" style="enable-background:new 0 0 841.9 247;" xml:space="preserve">
<g>
	<polygon class="polygon" style="fill:#D1D1D1;" points="238.9,22.4 214.8,22.4 195.7,74.8 202.2,86 	"/>
	<path class="path" style="fill:#ecf3f9;" d="M263.6,86l-23.1-63.6h-1.5L202.2,86H263.6z M236.2,72.3H219l8.5-25.9L236.2,72.3z"/>
	<path class="path" style="fill:#4AEDC2;" d="M403.9,38.7H395v15.4v18.7c0,3.6-0.9,6.5-2.8,8.6c-1.9,2.1-4.5,3.1-7.7,3.1c-2.3,0-4.3-0.6-6-1.7
		c-0.6-0.4-1.1-0.9-1.6-1.4c-1.9-2.1-2.9-4.9-2.9-8.6V38.7h-22.1V43l24.8,43h40.7V38.7H403.9z"/>
	<path class="path" style="opacity:1;fill:#EC008C;" d="M431.1,48c-2,3.1-3.1,6.5-3.1,10.3c0,4.4,1.1,7.9,3.3,10.4c2.2,2.6,4.9,4.4,7.9,5.6
		c3,1.1,6.8,2.2,11.3,3.1c4,0.9,6.9,1.7,8.6,2.5c0.8,0.3,1.4,0.8,1.8,1.3l-22.8-39.4C435.1,43.3,432.8,45.4,431.1,48z"/>
	<polygon class="polygon" style="opacity:1;fill:#EC008C;" points="558.6,38.7 532,38.7 527.4,45.1 538.5,64.3 	"/>
	<path class="path" style="fill:#D1D1D1;" d="M479,72.7c-1.5-1.7-3.2-3.2-5-4.3c-1-0.6-2-1.1-3.1-1.6c-3.1-1.2-6.9-2.3-11.5-3.3
		c-3.9-0.8-6.7-1.6-8.4-2.4c-1.7-0.8-2.6-1.9-2.6-3.5c0-1.2,0.5-2.2,1.4-2.8c0.9-0.7,2.3-1,4.1-1c2.3,0,4.2,0.5,5.6,1.6
		c1.4,1.1,2.3,2.7,2.7,4.7h16.5h3.6c-0.2-1.6-0.5-3.1-0.9-4.6c-1.3-4.6-3.8-8.4-7.4-11.5c-4.8-4.1-11.3-6.1-19.6-6.1
		c-5.6,0-10.4,0.9-14.3,2.7c-0.7,0.3-1.3,0.6-1.9,0.9L461,81c0.3,0.3,0.5,0.7,0.6,1.1c0.1,0.4,0.2,0.7,0.2,1.2c0,1.1-0.5,2-1.3,2.7
		h3.4h18.4c0.1-0.8,0.2-1.6,0.2-2.4C482.4,79,481.3,75.4,479,72.7z"/>
<polygon class="polygon" style="fill:#4AEDC2;" points="628.8,38.7 611,38.7 628.8,69.6 	"/>
	<path class="path" style="fill:#EC008C;" d="M611,38.7h-4.4v8.8c-1.7-2.9-4.2-5.3-7.4-7c-3.2-1.7-7-2.6-11.3-2.6c-3.7,0-7.1,0.7-10.3,2.1
		c-1.2,0.5-2.4,1.1-3.5,1.9c-4.1,2.6-7.4,6.4-9.8,11.3c-2.2,4.6-3.4,9.9-3.5,15.9c0,0.5,0,0.9,0,1.4c0,5.8,0.9,11,2.8,15.5h65.2
		V69.6L611,38.7z M603.2,80.2c-2.2,2.3-5,3.5-8.2,3.5c-3.3,0-6.1-1.2-8.3-3.6c-2.2-2.4-3.3-5.6-3.3-9.7c0-4.2,1.1-7.4,3.3-9.7
		c2.2-2.3,4.9-3.5,8.3-3.5c3.2,0,6,1.2,8.2,3.5c2.2,2.3,3.3,5.6,3.3,9.6C606.6,74.6,605.4,77.9,603.2,80.2z"/>
		<path class="path" style="fill:#5E5E5E;" d="M698.6,166.4c0,4.3-1,7.6-3.1,9.9c-2.1,2.3-4.7,3.5-7.8,3.5c-3.1,0-5.6-1.1-7.6-3.4
		c-1.5-1.7-2.4-4.1-2.8-7l-12.5,21.7c1.8,1.5,3.7,2.9,5.8,4c5,2.6,10.7,4,17.1,4s12.1-1.3,17.1-4c5.1-2.6,9.1-6.4,12-11.4
		c2.9-4.9,4.4-10.7,4.4-17.3c0-1.7-0.1-3.3-0.3-4.9H698C698.4,163,698.6,164.6,698.6,166.4z"/>
	<path class="path" style="fill:#4AEDC2;" d="M716.8,149.2c-2.9-4.9-6.9-8.7-11.9-11.3c-2.4-1.3-5-2.2-7.7-2.9c-2.9-0.7-6.1-1.1-9.4-1.1
		c-6.3,0-12,1.3-17.1,4c-0.7,0.3-1.3,0.7-1.9,1.1l10.7,18.5c0.2-0.3,0.5-0.6,0.7-0.9c1.8-2,3.9-3.1,6.4-3.3c0.4,0,0.8-0.1,1.2-0.1
		c3,0,5.6,1.1,7.7,3.4c1.2,1.3,2,3,2.6,5h22.8C720.3,157,718.9,152.8,716.8,149.2z"/>
	<path class="path" style="opacity:1;fill:#f6f1f4;" d="M564.3,87.8c2.4,5,5.6,8.7,9.8,11.4c4.1,2.6,8.7,4,13.8,4c4.3,0,8.1-0.9,11.3-2.6
		c3.2-1.7,5.7-4.1,7.4-7v8.8h22.2V86h-65.2C563.8,86.6,564,87.2,564.3,87.8z"/>
	<polygon class="polygon" style="fill:#EC008C;" points="594.6,161.5 574.6,196.1 574.6,198.3 597,198.3 597,165.6 597,161.5 	"/>
	<path class="path" style="fill:#D1D1D1;" d="M608.5,161.5v24.1v12.7h7.3h14.9v-27.8c0-4,0.9-7,2.6-9H608.5z"/>
	<polygon class="polygon" style="fill:#4AEDC2;" points="574.6,114.4 574.6,126.9 594.6,161.5 597,161.5 597,157.5 597,114.4 	"/>
	<path class="path" style="fill:#EC008C;" d="M639.8,137.3c-3.6,2.1-6.6,5-9.1,8.6v-11.2h-20.6h-1.6v2.8v24.1h24.8c0.3-0.3,0.6-0.6,0.9-0.9
		c2.3-1.9,5.9-2.8,10.8-2.8h6.2v-23.7C647.2,134.1,643.4,135.2,639.8,137.3z"/>
	<path class="path" style="fill:#EC008C;" d="M679.5,157.4L668.8,139c-4.1,2.6-7.5,6-10,10.2c-2.2,3.7-3.5,7.8-4.1,12.3c-0.2,1.6-0.3,3.2-0.3,4.9
		c0,6.7,1.4,12.4,4.3,17.3c1.6,2.8,3.7,5.2,6,7.3l12.5-21.7c-0.1-0.9-0.2-1.9-0.2-3c0-1.8,0.2-3.4,0.6-4.9
		C678.1,160,678.7,158.6,679.5,157.4z"/>
<polygon class="polygon" style="fill:#4AEDC2;" points="533.5,70.7 538.5,64.3 527.4,45.1 514.4,63.7 514.4,22.5 514.4,18.4 512,18.4 502.8,18.4 
		492.2,18.4 492.2,36.9 492.2,86 492.2,102.3 514.4,102.3 514.4,86 514.4,76.3 520.9,86 545.9,86 	"/>
	<path class="path" style="fill:#EC008C;" d="M499.6,176.3c-0.7,1.4-1.5,2.5-2.6,3.3l-10.9,19c2.1,0.3,4.2,0.5,6.5,0.5c5.2,0,10-1,14.3-2.9
		c4.3-2,7.9-4.7,10.7-8.1c1.1-1.3,2-2.7,2.8-4.1c1.3-2.4,2.3-4.9,2.9-7.6H499.6z"/>
	<path class="path" style="fill:#F8F8FF;" d="M574.1,161.5c0.4,1.5,0.7,3.1,0.7,4.9c0,4.2-1.1,7.4-3.3,9.8c-2.2,2.3-5,3.5-8.2,3.5
		c-3.3,0-6.1-1.2-8.3-3.6c-2.2-2.4-3.3-5.6-3.3-9.7c0-1.8,0.2-3.4,0.6-4.9h-23.1c-0.2,1.6-0.2,3.2-0.2,4.9c0,6.6,1.2,12.3,3.6,17.3
		c2.4,5,5.6,8.7,9.8,11.4c4.1,2.6,8.7,4,13.8,4c4.3,0,8-0.9,11.2-2.6c3.2-1.7,5.6-4.1,7.4-7v6.7l20-34.6H574.1z"/>
	<polygon class="polygon" style="fill:#EC008C;" points="548.9,89.7 545.9,86 520.9,86 532,102.3 541.6,102.3 559.1,102.3 	"/>
	<path class="path" style="fill:#4AEDC2;" d="M524.4,161.5c-0.5-4.8-1.8-9-3.9-12.7c-0.9-1.6-2-3.1-3.2-4.5l-10,17.3L502,171h10.9h11.4
		c0.2-1.7,0.3-3.5,0.3-5.2C524.6,164.3,524.6,162.9,524.4,161.5z"/>
	<path class="path" style="opacity:1;fill:#D1D1D1;" d="M554.9,156.7c2.2-2.3,4.9-3.5,8.3-3.5c3.2,0,6,1.2,8.2,3.5c1.2,1.3,2.1,2.9,2.7,4.7
		h20.5l-20-34.6v16.5c-1.8-2.9-4.3-5.3-7.5-7c-3.2-1.7-6.9-2.6-10.9-2.6c-5.1,0-9.7,1.3-13.8,4c-4.2,2.6-7.4,6.4-9.8,11.3
		c-1.8,3.7-2.9,7.8-3.3,12.3h23.1C552.8,159.6,553.7,158,554.9,156.7z"/>
	 <path class="path" style="fill:#5E5E5E;" d="M421.7,179.7c-3.3,0-6-1.2-8.2-3.5c-0.4-0.4-0.7-0.8-1-1.2l-24.6,42.6v11.2h22.2v-39.2
		c1.8,2.9,4.3,5.3,7.4,7c3.1,1.7,6.9,2.6,11.2,2.6c4.2,0,8.1-0.9,11.6-2.7l-11.2-19.4C427,178.8,424.6,179.7,421.7,179.7z"/>
	<path class="path" style="opacity:1;fill:#4AEDC2;" d="M385.3,101.1c0.6-0.3,1.2-0.5,1.8-0.9c3.3-1.8,5.9-4.1,7.8-7v9.1h22.3V86h-40.7
		L385.3,101.1z"/>
	<path class="path" style="fill:#4AEDC2;" d="M491.7,181.3c-2.6,0-4.8-0.9-6.5-2.6c-1.7-1.7-2.7-4.3-2.9-7.8H502l5.4-9.4h-46.9
		c-0.2,1.6-0.3,3.2-0.3,4.9c0,6.7,1.4,12.4,4.1,17.3c2.8,4.9,6.6,8.7,11.5,11.3c3.1,1.7,6.5,2.8,10.2,3.4l10.9-19
		C495.6,180.7,493.8,181.3,491.7,181.3z"/>
	<path class="path" style="fill:#5E5E5E;" d="M463.8,86h-3.4c-0.1,0.1-0.2,0.2-0.3,0.2c-1.1,0.8-2.5,1.1-4.3,1.1c-2.1,0-3.9-0.5-5.3-1.4
		c-0.2-0.1-0.4-0.2-0.6-0.3c-1.6-1.1-2.5-2.7-2.8-4.8h-21.5c0.1,1.8,0.5,3.5,1,5.1c0.7,2.2,1.9,4.4,3.4,6.3c2.6,3.4,6.2,6,10.7,7.9
		c4,1.7,8.4,2.6,13.3,2.8c0.7,0,1.3,0,2,0c5.4,0,10-0.9,14-2.6c0.6-0.3,1.2-0.5,1.8-0.8c3.1-1.6,5.6-3.6,7.4-6.1
		c1.7-2.3,2.7-4.8,3.1-7.6H463.8z"/>
		<path class="path" style="fill:#4AEDC2;" d="M455.6,161.5c-0.5-4.6-1.6-8.7-3.3-12.3c-2.4-4.9-5.6-8.7-9.8-11.3c-2.2-1.4-4.4-2.4-6.8-3.1
		l-10.9,18.9c1.9,0.5,3.7,1.5,5.2,3.1c1.3,1.3,2.1,2.9,2.7,4.8c0.4,1.5,0.6,3.1,0.6,4.9c0,4.1-1.1,7.3-3.3,9.7
		c-0.3,0.3-0.5,0.5-0.8,0.8l11.2,19.4c0.7-0.4,1.5-0.8,2.2-1.2c4.1-2.6,7.4-6.4,9.8-11.4c2.4-4.9,3.6-10.7,3.6-17.3
		C455.8,164.7,455.7,163.1,455.6,161.5z"/>
	<path class="path" style="fill:#D1D1D1;" d="M509.2,137.7c-4.8-2.6-10.4-3.9-16.7-3.9c-0.4,0-0.7,0-1.1,0c-5.9,0.1-11.2,1.4-15.8,3.9
		c-4.9,2.6-8.7,6.4-11.4,11.3c-2,3.6-3.3,7.8-3.8,12.4h46.9l10-17.3C515.1,141.6,512.4,139.4,509.2,137.7z M482.4,160.2
		c0.5-2.9,1.7-5,3.4-6.5c1.7-1.5,4-2.2,6.7-2.2c2.7,0,5,0.8,6.8,2.3c1.8,1.5,2.7,3.7,2.7,6.4H482.4z"/>
	<path class="path" style="fill:#5E5E5E;" d="M334.7,45.5c-4.3-4.9-10.1-7.3-17.5-7.3c-0.1,0-0.1,0-0.2,0l-10.7,18.5c0.7-0.1,1.4-0.2,2.2-0.2
		c3.2,0,5.7,1,7.6,3.1c1.9,2.1,2.8,4.9,2.8,8.6V86v16.3h22.2V86V65.3C341.1,57,339,50.4,334.7,45.5z"/>
	<path class="path" style="fill:#4AEDC2;" d="M305.8,40.8c-3.3,1.8-6,4.1-7.9,7v-9.1h-22.2v23.4L289.4,86l8.4,14.6V86V71.4v-3.2
		c0-3.6,0.9-6.5,2.8-8.6c1.5-1.6,3.3-2.6,5.7-2.9L317,38.2C312.8,38.2,309,39.1,305.8,40.8z"/>
	<path class="path" style="opacity:1;fill:#D1D1D1;" d="M354.7,164.2v34.1h22.2v-36.8h-22.4C354.6,162.3,354.7,163.2,354.7,164.2z"/>
	<path class="path" style="opacity:1;fill:#4AEDC2;" d="M410.1,166.4c0-1.8,0.2-3.4,0.7-4.9h-22.9v56l24.6-42.6
		C410.9,172.7,410.1,169.9,410.1,166.4z"/>
	<path class="path" style="fill:#F8F8FF;" d="M376.6,86l-24.8-43v32.7c0,3.8,0.5,7.2,1.3,10.3c1.1,3.7,2.7,6.9,5.1,9.6c2.6,2.9,5.7,4.9,9.3,6.1
		c2.5,0.8,5.2,1.2,8.2,1.2c3.5,0,6.7-0.6,9.6-1.8L376.6,86z"/>
	<path class="path" style="fill:#5E5E5E;" d="M370.1,141.4c-4.6-4.8-10.9-7.3-18.9-7.3c-0.8,0-1.6,0-2.4,0.1c-3.5,0.3-6.8,1.3-9.8,3.1
		c-3.7,2.2-6.7,5-9,8.4c-2.1-3.7-5-6.6-8.7-8.6c-1-0.6-2.1-1.1-3.2-1.5l14.9,25.8h0.8c0.4-2.2,1.2-3.9,2.6-5.3
		c1.9-1.9,4.5-2.8,7.7-2.8c3.2,0,5.8,0.9,7.7,2.8c1.4,1.4,2.2,3.1,2.6,5.3h22.4v-0.3C376.9,152.8,374.6,146.2,370.1,141.4z"/>
	<path class="path" style="fill:#D1D1D1;" d="M428.7,133.9c-4.3,0-8,0.9-11.2,2.6c-3.2,1.7-5.6,4.1-7.4,7v-8.8h-5.4h-16.8v26.9h22.9
		c0.6-1.8,1.4-3.4,2.7-4.7c0.8-0.9,1.8-1.6,2.8-2.2c1.6-0.9,3.4-1.4,5.5-1.4c1.1,0,2.1,0.1,3.1,0.4l10.9-18.9
		C433.5,134.2,431.1,133.9,428.7,133.9z"/>
	<path class="path" style="fill:#f6f1f4;" d="M245.8,161.5l-20.6,35.7c0.6-0.2,1.1-0.5,1.7-0.8c3.2-1.7,5.7-4.1,7.4-7v8.8h22.2V180v-18.5H245.8z"
		/>
	<path class="path" style="opacity:1;fill:#D1D1D1;" d="M333,161.5h-21.9c0.1,0.8,0.2,1.7,0.2,2.6v34.1h0.4h21.8v-34.1c0-0.5,0-1,0.1-1.5
		L333,161.5z"/>
	<path class="path" style="fill:#5E5E5E;" d="M268.1,198.3h22.2v-34.1c0-0.9,0.1-1.8,0.2-2.6h-22.4V198.3z"/>
	<polygon class="polygon" style="fill:#F8F8FF;" points="289.4,86 275.6,62.1 275.6,86 275.6,102.3 280,102.3 297.8,102.3 297.8,100.6 	"/>
	<polygon class="polygon" style="fill:#f6f1f4;" points="234.3,134.7 234.3,141.6 245.8,161.5 256.5,161.5 256.5,143 256.5,134.7 	"/>
	<path class="path" style="fill:#4AEDC2;" d="M318.1,135.7c-2.8-1.1-6-1.6-9.3-1.6c-4.1,0-7.7,0.8-10.8,2.4c-3.1,1.6-5.7,3.8-7.7,6.5v-8.4h-22.2
		v26.9h22.4c0.4-2.2,1.2-3.9,2.6-5.3c1.9-1.9,4.5-2.8,7.8-2.8c3.2,0,5.8,0.9,7.7,2.8c1.3,1.4,2.2,3.1,2.6,5.3H333L318.1,135.7z"/>
	<path class="path" style="opacity:1;fill:#D1D1D1;" d="M233.6,161.5c0.4,1.5,0.7,3.1,0.7,4.9c0,4.2-1.1,7.4-3.3,9.8c-2.2,2.3-5,3.5-8.2,3.5
		c-3.3,0-6.1-1.2-8.3-3.6c-2.2-2.4-3.3-5.6-3.3-9.7c0-1.8,0.2-3.4,0.6-4.9h-23.1c-0.2,1.6-0.2,3.2-0.2,4.9c0,6.6,1.2,12.3,3.6,17.3
		c2.4,5,5.6,8.7,9.8,11.4c4.1,2.6,8.7,4,13.8,4c3.6,0,6.8-0.6,9.6-1.8l20.6-35.7H233.6z"/>
	<polygon class="polygon" style="fill:#EC008C;" points="263.6,86 202.2,86 195.7,74.8 191.7,86 185.7,102.3 192.8,102.3 209.1,102.3 210,99.5 
		213.4,89.3 241.7,89.3 246,102.3 269.5,102.3 	"/>
	<path class="path" style="fill:#4AEDC2;" d="M177.7,128.5c-1.3-1.8-2.8-3.5-4.7-4.9c-5.6-4.3-13-6.5-22.3-6.5c-5.7,0-10.9,0.9-15.4,2.8
		c-0.2,0.1-0.4,0.2-0.6,0.3l10.2,17.7c0.3-0.7,0.6-1.2,1.1-1.7c1.1-1,2.4-1.5,4.1-1.5c2.2,0,4,0.6,5.4,1.8c1.4,1.2,2.1,3,2.2,5.4
		h12.2h12C181.6,136.7,180.2,132.2,177.7,128.5z"/>
	<path class="path" style="fill:#5E5E5E;" d="M179.4,162.4c-0.2-0.3-0.5-0.6-0.7-0.9c-2.2-2.6-4.8-4.7-7.8-6.3c-2-1-4.3-2-6.9-3.1
		c-1.8-0.7-3.6-1.4-5.7-2.1c-3.4-1.2-6-2.2-7.7-3c-0.2-0.1-0.3-0.2-0.5-0.2l8.5,14.7l17.1,29.7c1.4-1.3,2.6-2.8,3.6-4.4
		c2.4-3.8,3.6-8.1,3.6-12.8C182.9,169.3,181.7,165.5,179.4,162.4z"/>
	<path class="path" style="fill:#4AEDC2;" d="M214.4,156.7c2.2-2.3,4.9-3.5,8.3-3.5c3.2,0,6,1.2,8.2,3.5c1.2,1.3,2.1,2.9,2.7,4.7h12.2l-11.5-20v2
		c-1.7-2.9-4.2-5.3-7.4-7c-3.2-1.7-7-2.6-11.3-2.6c-5.1,0-9.7,1.3-13.8,4c-4.1,2.6-7.4,6.4-9.8,11.3c-1.8,3.7-2.9,7.8-3.3,12.3h23.1
		C212.3,159.6,213.2,158,214.4,156.7z"/>
	<path class="path" style="fill:#EC008C;" d="M158.6,161.5l-4.5,7.7c0.7,0.3,1.4,0.7,1.9,1c2.2,1.3,3.3,3.1,3.3,5.4c0,1.8-0.7,3.2-2,4.3
		c-1.3,1-3,1.5-5,1.5c-1.8,0-3.3-0.4-4.6-1.2c-0.4-0.2-0.7-0.5-1-0.7c-1.4-1.3-2.3-3.3-2.5-6.1h-23.7c0.5,8.2,3.7,14.6,9.6,19
		c2.4,1.8,5.1,3.2,8.1,4.3c4.4,1.6,9.3,2.4,14.8,2.4c6.1,0,11.4-1.1,15.9-3.3c2.6-1.3,4.8-2.8,6.7-4.6L158.6,161.5z"/>
	<path class="path" style="fill:#EC008C;" d="M150.1,146.8c-1.5-0.7-2.8-1.6-3.9-2.6c-1.2-1.1-1.8-2.4-1.8-3.9c0-0.9,0.2-1.8,0.4-2.5l-10.2-17.7
		c-4.3,1.9-7.6,4.6-10.1,8.1c-2.6,3.7-3.9,8.1-3.9,13.2c0,5.1,1.2,9.2,3.6,12.3c2.4,3.1,5.2,5.5,8.4,7.1c0.4,0.2,0.8,0.4,1.2,0.6
		c3,1.4,6.8,2.9,11.4,4.4c3.7,1.2,6.6,2.3,8.7,3.3l4.5-7.7L150.1,146.8z"/> -->
</g>
</svg>
